<mxfile host="app.diagrams.net" modified="2023-06-12T16:36:18.042Z" agent="Mozilla/5.0 (Windows NT 10.0; Win64; x64) AppleWebKit/537.36 (KHTML, like Gecko) Chrome/110.0.0.0 Safari/537.36" etag="KR84lAUqSQk5UduXgNda" version="21.3.8" type="device">
  <diagram name="Página-1" id="-43v408nJLvd4pvJnhrM">
    <mxGraphModel dx="1035" dy="502" grid="1" gridSize="10" guides="1" tooltips="1" connect="1" arrows="1" fold="1" page="1" pageScale="1" pageWidth="827" pageHeight="1169" math="0" shadow="0">
      <root>
        <mxCell id="0" />
        <mxCell id="1" parent="0" />
        <mxCell id="GbRqogOaV6iNlA_MzjSu-1" value="" style="rounded=0;whiteSpace=wrap;html=1;dashed=1;" parent="1" vertex="1">
          <mxGeometry x="130" y="60" width="580" height="790" as="geometry" />
        </mxCell>
        <mxCell id="GbRqogOaV6iNlA_MzjSu-2" value="db&lt;br&gt;" style="shape=umlActor;verticalLabelPosition=bottom;verticalAlign=top;html=1;" parent="1" vertex="1">
          <mxGeometry x="770" y="170" width="30" height="60" as="geometry" />
        </mxCell>
        <mxCell id="mxCILP4FLF9PRrPesNOP-13" style="edgeStyle=orthogonalEdgeStyle;rounded=0;orthogonalLoop=1;jettySize=auto;html=1;entryX=0;entryY=0.5;entryDx=0;entryDy=0;endArrow=none;endFill=0;" edge="1" parent="1" source="GbRqogOaV6iNlA_MzjSu-3" target="GbRqogOaV6iNlA_MzjSu-60">
          <mxGeometry relative="1" as="geometry" />
        </mxCell>
        <mxCell id="mxCILP4FLF9PRrPesNOP-17" style="edgeStyle=orthogonalEdgeStyle;rounded=0;orthogonalLoop=1;jettySize=auto;html=1;entryX=0;entryY=0.5;entryDx=0;entryDy=0;strokeColor=default;endArrow=none;endFill=0;" edge="1" parent="1" source="GbRqogOaV6iNlA_MzjSu-3" target="GbRqogOaV6iNlA_MzjSu-59">
          <mxGeometry relative="1" as="geometry">
            <Array as="points">
              <mxPoint x="140" y="240" />
              <mxPoint x="140" y="405" />
            </Array>
          </mxGeometry>
        </mxCell>
        <mxCell id="GbRqogOaV6iNlA_MzjSu-3" value="Dueño&lt;br&gt;" style="shape=umlActor;verticalLabelPosition=bottom;verticalAlign=top;html=1;" parent="1" vertex="1">
          <mxGeometry x="70" y="190" width="30" height="60" as="geometry" />
        </mxCell>
        <mxCell id="GbRqogOaV6iNlA_MzjSu-11" style="edgeStyle=orthogonalEdgeStyle;rounded=0;orthogonalLoop=1;jettySize=auto;html=1;endArrow=none;endFill=0;" parent="1" source="GbRqogOaV6iNlA_MzjSu-9" edge="1">
          <mxGeometry relative="1" as="geometry">
            <mxPoint x="785" y="150" as="targetPoint" />
            <Array as="points">
              <mxPoint x="786" y="90" />
            </Array>
          </mxGeometry>
        </mxCell>
        <mxCell id="GbRqogOaV6iNlA_MzjSu-9" value="Insertar productos" style="ellipse;whiteSpace=wrap;html=1;" parent="1" vertex="1">
          <mxGeometry x="400" y="70" width="80" height="70" as="geometry" />
        </mxCell>
        <mxCell id="GbRqogOaV6iNlA_MzjSu-15" style="edgeStyle=orthogonalEdgeStyle;rounded=0;orthogonalLoop=1;jettySize=auto;html=1;endArrow=none;endFill=0;" parent="1" source="GbRqogOaV6iNlA_MzjSu-13" edge="1">
          <mxGeometry relative="1" as="geometry">
            <mxPoint x="775" y="180" as="targetPoint" />
          </mxGeometry>
        </mxCell>
        <mxCell id="GbRqogOaV6iNlA_MzjSu-13" value="eliminar productos" style="ellipse;whiteSpace=wrap;html=1;" parent="1" vertex="1">
          <mxGeometry x="294" y="110" width="80" height="70" as="geometry" />
        </mxCell>
        <mxCell id="GbRqogOaV6iNlA_MzjSu-18" style="edgeStyle=orthogonalEdgeStyle;rounded=0;orthogonalLoop=1;jettySize=auto;html=1;endArrow=none;endFill=0;" parent="1" source="GbRqogOaV6iNlA_MzjSu-16" target="GbRqogOaV6iNlA_MzjSu-2" edge="1">
          <mxGeometry relative="1" as="geometry">
            <Array as="points" />
            <mxPoint x="750" y="200" as="targetPoint" />
          </mxGeometry>
        </mxCell>
        <mxCell id="GbRqogOaV6iNlA_MzjSu-16" value="modificar&lt;br&gt;productos" style="ellipse;whiteSpace=wrap;html=1;" parent="1" vertex="1">
          <mxGeometry x="374" y="170" width="56" height="60" as="geometry" />
        </mxCell>
        <mxCell id="GbRqogOaV6iNlA_MzjSu-31" style="edgeStyle=orthogonalEdgeStyle;rounded=0;orthogonalLoop=1;jettySize=auto;html=1;endArrow=none;endFill=0;" parent="1" source="GbRqogOaV6iNlA_MzjSu-26" target="GbRqogOaV6iNlA_MzjSu-2" edge="1">
          <mxGeometry relative="1" as="geometry">
            <Array as="points">
              <mxPoint x="620" y="280" />
              <mxPoint x="620" y="210" />
            </Array>
          </mxGeometry>
        </mxCell>
        <mxCell id="GbRqogOaV6iNlA_MzjSu-26" value="Ver productos" style="ellipse;whiteSpace=wrap;html=1;aspect=fixed;" parent="1" vertex="1">
          <mxGeometry x="390" y="240" width="70" height="70" as="geometry" />
        </mxCell>
        <mxCell id="GbRqogOaV6iNlA_MzjSu-36" style="edgeStyle=orthogonalEdgeStyle;rounded=0;orthogonalLoop=1;jettySize=auto;html=1;endArrow=none;endFill=0;exitX=0.635;exitY=0.983;exitDx=0;exitDy=0;exitPerimeter=0;" parent="1" source="GbRqogOaV6iNlA_MzjSu-27" target="GbRqogOaV6iNlA_MzjSu-2" edge="1">
          <mxGeometry relative="1" as="geometry">
            <Array as="points">
              <mxPoint x="413" y="460" />
              <mxPoint x="620" y="460" />
              <mxPoint x="620" y="210" />
            </Array>
          </mxGeometry>
        </mxCell>
        <mxCell id="mxCILP4FLF9PRrPesNOP-20" style="edgeStyle=orthogonalEdgeStyle;rounded=0;orthogonalLoop=1;jettySize=auto;html=1;endArrow=none;endFill=0;" edge="1" parent="1" source="GbRqogOaV6iNlA_MzjSu-27" target="GbRqogOaV6iNlA_MzjSu-2">
          <mxGeometry relative="1" as="geometry">
            <mxPoint x="660" y="300" as="targetPoint" />
            <Array as="points">
              <mxPoint x="620" y="410" />
              <mxPoint x="620" y="210" />
            </Array>
          </mxGeometry>
        </mxCell>
        <mxCell id="mxCILP4FLF9PRrPesNOP-35" style="edgeStyle=orthogonalEdgeStyle;rounded=0;orthogonalLoop=1;jettySize=auto;html=1;entryX=0;entryY=0.5;entryDx=0;entryDy=0;" edge="1" parent="1" source="GbRqogOaV6iNlA_MzjSu-27" target="GbRqogOaV6iNlA_MzjSu-29">
          <mxGeometry relative="1" as="geometry" />
        </mxCell>
        <mxCell id="GbRqogOaV6iNlA_MzjSu-27" value="Ver inventario" style="ellipse;whiteSpace=wrap;html=1;aspect=fixed;" parent="1" vertex="1">
          <mxGeometry x="362" y="370" width="80" height="80" as="geometry" />
        </mxCell>
        <mxCell id="GbRqogOaV6iNlA_MzjSu-39" style="rounded=0;orthogonalLoop=1;jettySize=auto;html=1;" parent="1" source="GbRqogOaV6iNlA_MzjSu-28" target="GbRqogOaV6iNlA_MzjSu-34" edge="1">
          <mxGeometry relative="1" as="geometry" />
        </mxCell>
        <mxCell id="GbRqogOaV6iNlA_MzjSu-28" value="Registrar venta" style="ellipse;whiteSpace=wrap;html=1;aspect=fixed;" parent="1" vertex="1">
          <mxGeometry x="260" y="500" width="80" height="80" as="geometry" />
        </mxCell>
        <mxCell id="GbRqogOaV6iNlA_MzjSu-29" value="Administrar inventario" style="ellipse;whiteSpace=wrap;html=1;aspect=fixed;" parent="1" vertex="1">
          <mxGeometry x="480" y="375" width="70" height="70" as="geometry" />
        </mxCell>
        <mxCell id="GbRqogOaV6iNlA_MzjSu-34" value="verificar el codigos de barras" style="ellipse;whiteSpace=wrap;html=1;aspect=fixed;" parent="1" vertex="1">
          <mxGeometry x="362" y="500" width="80" height="80" as="geometry" />
        </mxCell>
        <mxCell id="GbRqogOaV6iNlA_MzjSu-41" value="registrar venta" style="ellipse;whiteSpace=wrap;html=1;aspect=fixed;" parent="1" vertex="1">
          <mxGeometry x="610" y="530" width="80" height="80" as="geometry" />
        </mxCell>
        <mxCell id="GbRqogOaV6iNlA_MzjSu-44" style="edgeStyle=orthogonalEdgeStyle;rounded=0;orthogonalLoop=1;jettySize=auto;html=1;endArrow=none;endFill=0;" parent="1" source="GbRqogOaV6iNlA_MzjSu-42" target="GbRqogOaV6iNlA_MzjSu-57" edge="1">
          <mxGeometry relative="1" as="geometry">
            <Array as="points">
              <mxPoint x="60" y="680" />
              <mxPoint x="60" y="540" />
            </Array>
          </mxGeometry>
        </mxCell>
        <mxCell id="GbRqogOaV6iNlA_MzjSu-42" value="devolver cambio" style="ellipse;whiteSpace=wrap;html=1;aspect=fixed;" parent="1" vertex="1">
          <mxGeometry x="280" y="640" width="80" height="80" as="geometry" />
        </mxCell>
        <mxCell id="GbRqogOaV6iNlA_MzjSu-55" style="rounded=0;orthogonalLoop=1;jettySize=auto;html=1;exitX=0;exitY=1;exitDx=0;exitDy=0;edgeStyle=orthogonalEdgeStyle;" parent="1" source="GbRqogOaV6iNlA_MzjSu-47" target="GbRqogOaV6iNlA_MzjSu-42" edge="1">
          <mxGeometry relative="1" as="geometry">
            <Array as="points">
              <mxPoint x="530" y="680" />
            </Array>
          </mxGeometry>
        </mxCell>
        <mxCell id="mxCILP4FLF9PRrPesNOP-3" style="edgeStyle=orthogonalEdgeStyle;rounded=0;orthogonalLoop=1;jettySize=auto;html=1;entryX=0.5;entryY=0;entryDx=0;entryDy=0;" edge="1" parent="1" source="GbRqogOaV6iNlA_MzjSu-47" target="GbRqogOaV6iNlA_MzjSu-41">
          <mxGeometry relative="1" as="geometry">
            <Array as="points">
              <mxPoint x="650" y="510" />
            </Array>
          </mxGeometry>
        </mxCell>
        <mxCell id="GbRqogOaV6iNlA_MzjSu-47" value="ingresar pago" style="ellipse;whiteSpace=wrap;html=1;aspect=fixed;" parent="1" vertex="1">
          <mxGeometry x="520" y="490" width="70" height="70" as="geometry" />
        </mxCell>
        <mxCell id="GbRqogOaV6iNlA_MzjSu-52" value="Use" style="endArrow=open;endSize=12;dashed=1;html=1;rounded=0;exitX=0.963;exitY=0.3;exitDx=0;exitDy=0;exitPerimeter=0;" parent="1" source="GbRqogOaV6iNlA_MzjSu-34" target="GbRqogOaV6iNlA_MzjSu-47" edge="1">
          <mxGeometry width="160" relative="1" as="geometry">
            <mxPoint x="330" y="590" as="sourcePoint" />
            <mxPoint x="490" y="590" as="targetPoint" />
          </mxGeometry>
        </mxCell>
        <mxCell id="mxCILP4FLF9PRrPesNOP-26" style="edgeStyle=orthogonalEdgeStyle;rounded=0;orthogonalLoop=1;jettySize=auto;html=1;entryX=0;entryY=0.5;entryDx=0;entryDy=0;" edge="1" parent="1" source="GbRqogOaV6iNlA_MzjSu-57" target="mxCILP4FLF9PRrPesNOP-24">
          <mxGeometry relative="1" as="geometry" />
        </mxCell>
        <mxCell id="GbRqogOaV6iNlA_MzjSu-57" value="Empleado" style="shape=umlActor;verticalLabelPosition=bottom;verticalAlign=top;html=1;" parent="1" vertex="1">
          <mxGeometry x="70" y="510" width="30" height="60" as="geometry" />
        </mxCell>
        <mxCell id="mxCILP4FLF9PRrPesNOP-19" style="edgeStyle=orthogonalEdgeStyle;rounded=0;orthogonalLoop=1;jettySize=auto;html=1;startArrow=none;startFill=0;endArrow=none;endFill=0;" edge="1" parent="1" source="GbRqogOaV6iNlA_MzjSu-59">
          <mxGeometry relative="1" as="geometry">
            <mxPoint x="770" y="220" as="targetPoint" />
            <Array as="points">
              <mxPoint x="250" y="405" />
              <mxPoint x="250" y="340" />
              <mxPoint x="620" y="340" />
              <mxPoint x="620" y="210" />
              <mxPoint x="770" y="210" />
            </Array>
          </mxGeometry>
        </mxCell>
        <mxCell id="GbRqogOaV6iNlA_MzjSu-59" value="Registrar&lt;br&gt;Usuario" style="ellipse;whiteSpace=wrap;html=1;aspect=fixed;" parent="1" vertex="1">
          <mxGeometry x="180" y="375" width="60" height="60" as="geometry" />
        </mxCell>
        <mxCell id="GbRqogOaV6iNlA_MzjSu-60" value="Login Admin" style="ellipse;whiteSpace=wrap;html=1;aspect=fixed;" parent="1" vertex="1">
          <mxGeometry x="260" y="250" width="60" height="60" as="geometry" />
        </mxCell>
        <mxCell id="mxCILP4FLF9PRrPesNOP-4" value="" style="endArrow=none;html=1;rounded=0;exitX=1;exitY=0.5;exitDx=0;exitDy=0;edgeStyle=orthogonalEdgeStyle;" edge="1" parent="1" source="GbRqogOaV6iNlA_MzjSu-41" target="GbRqogOaV6iNlA_MzjSu-2">
          <mxGeometry width="50" height="50" relative="1" as="geometry">
            <mxPoint x="750" y="530" as="sourcePoint" />
            <mxPoint x="790" y="260" as="targetPoint" />
            <Array as="points">
              <mxPoint x="790" y="570" />
            </Array>
          </mxGeometry>
        </mxCell>
        <mxCell id="mxCILP4FLF9PRrPesNOP-24" value="Login Empleado" style="ellipse;whiteSpace=wrap;html=1;aspect=fixed;" vertex="1" parent="1">
          <mxGeometry x="140" y="470" width="60" height="60" as="geometry" />
        </mxCell>
        <mxCell id="mxCILP4FLF9PRrPesNOP-38" value="Include" style="endArrow=none;endSize=16;endFill=0;html=1;rounded=0;exitX=0;exitY=0.5;exitDx=0;exitDy=0;entryX=0;entryY=0;entryDx=0;entryDy=0;edgeStyle=orthogonalEdgeStyle;startArrow=block;startFill=0;targetPerimeterSpacing=3;" edge="1" parent="1" source="GbRqogOaV6iNlA_MzjSu-9" target="GbRqogOaV6iNlA_MzjSu-60">
          <mxGeometry width="160" relative="1" as="geometry">
            <mxPoint x="160" y="80" as="sourcePoint" />
            <mxPoint x="320" y="80" as="targetPoint" />
            <Array as="points">
              <mxPoint x="230" y="105" />
              <mxPoint x="230" y="259" />
            </Array>
          </mxGeometry>
        </mxCell>
        <mxCell id="mxCILP4FLF9PRrPesNOP-39" value="Include" style="endArrow=none;endSize=16;endFill=0;html=1;rounded=0;exitX=0;exitY=0.5;exitDx=0;exitDy=0;entryX=0;entryY=0;entryDx=0;entryDy=0;edgeStyle=orthogonalEdgeStyle;startArrow=block;startFill=0;" edge="1" parent="1" source="GbRqogOaV6iNlA_MzjSu-13" target="GbRqogOaV6iNlA_MzjSu-60">
          <mxGeometry width="160" relative="1" as="geometry">
            <mxPoint x="310" y="169" as="sourcePoint" />
            <mxPoint x="470" y="169" as="targetPoint" />
          </mxGeometry>
        </mxCell>
        <mxCell id="mxCILP4FLF9PRrPesNOP-40" value="Include" style="endArrow=none;endSize=16;endFill=0;html=1;rounded=0;exitX=0;exitY=0.5;exitDx=0;exitDy=0;entryX=0.5;entryY=0;entryDx=0;entryDy=0;edgeStyle=orthogonalEdgeStyle;startArrow=block;startFill=0;" edge="1" parent="1" source="GbRqogOaV6iNlA_MzjSu-16" target="GbRqogOaV6iNlA_MzjSu-60">
          <mxGeometry width="160" relative="1" as="geometry">
            <mxPoint x="294" y="240" as="sourcePoint" />
            <mxPoint x="454" y="240" as="targetPoint" />
          </mxGeometry>
        </mxCell>
        <mxCell id="mxCILP4FLF9PRrPesNOP-41" value="Include" style="endArrow=none;endSize=16;endFill=0;html=1;rounded=0;exitX=0;exitY=0.5;exitDx=0;exitDy=0;entryX=1;entryY=0.5;entryDx=0;entryDy=0;edgeStyle=orthogonalEdgeStyle;startArrow=block;startFill=0;" edge="1" parent="1" source="GbRqogOaV6iNlA_MzjSu-26" target="GbRqogOaV6iNlA_MzjSu-60">
          <mxGeometry width="160" relative="1" as="geometry">
            <mxPoint x="334" y="310" as="sourcePoint" />
            <mxPoint x="494" y="310" as="targetPoint" />
          </mxGeometry>
        </mxCell>
        <mxCell id="mxCILP4FLF9PRrPesNOP-42" value="Include" style="endArrow=blockThin;endSize=16;endFill=0;html=1;rounded=0;exitX=0;exitY=0.5;exitDx=0;exitDy=0;entryX=0.5;entryY=1;entryDx=0;entryDy=0;edgeStyle=orthogonalEdgeStyle;startArrow=none;startFill=0;" edge="1" parent="1" source="GbRqogOaV6iNlA_MzjSu-27" target="GbRqogOaV6iNlA_MzjSu-60">
          <mxGeometry width="160" relative="1" as="geometry">
            <mxPoint x="254" y="404.5" as="sourcePoint" />
            <mxPoint x="414" y="404.5" as="targetPoint" />
          </mxGeometry>
        </mxCell>
        <mxCell id="mxCILP4FLF9PRrPesNOP-44" value="Include" style="endArrow=none;endSize=16;endFill=0;html=1;rounded=0;entryX=1;entryY=0.5;entryDx=0;entryDy=0;exitX=0;exitY=0.5;exitDx=0;exitDy=0;edgeStyle=orthogonalEdgeStyle;startArrow=block;startFill=0;" edge="1" parent="1" source="GbRqogOaV6iNlA_MzjSu-28" target="mxCILP4FLF9PRrPesNOP-24">
          <mxGeometry width="160" relative="1" as="geometry">
            <mxPoint x="150" y="600" as="sourcePoint" />
            <mxPoint x="310" y="600" as="targetPoint" />
          </mxGeometry>
        </mxCell>
        <mxCell id="mxCILP4FLF9PRrPesNOP-47" style="edgeStyle=orthogonalEdgeStyle;rounded=0;orthogonalLoop=1;jettySize=auto;html=1;exitX=0;exitY=0.5;exitDx=0;exitDy=0;endArrow=none;endFill=0;" edge="1" parent="1" source="mxCILP4FLF9PRrPesNOP-45">
          <mxGeometry relative="1" as="geometry">
            <mxPoint x="60" y="670" as="targetPoint" />
          </mxGeometry>
        </mxCell>
        <mxCell id="mxCILP4FLF9PRrPesNOP-45" value="Generar Ticket" style="ellipse;whiteSpace=wrap;html=1;aspect=fixed;" vertex="1" parent="1">
          <mxGeometry x="290" y="740" width="80" height="80" as="geometry" />
        </mxCell>
        <mxCell id="mxCILP4FLF9PRrPesNOP-52" value="Include" style="endArrow=blockThin;endSize=16;endFill=0;html=1;rounded=0;exitX=0.5;exitY=1;exitDx=0;exitDy=0;entryX=1;entryY=0.5;entryDx=0;entryDy=0;edgeStyle=orthogonalEdgeStyle;startArrow=none;startFill=0;" edge="1" parent="1" source="GbRqogOaV6iNlA_MzjSu-41" target="mxCILP4FLF9PRrPesNOP-45">
          <mxGeometry width="160" relative="1" as="geometry">
            <mxPoint x="652" y="800" as="sourcePoint" />
            <mxPoint x="580" y="700" as="targetPoint" />
          </mxGeometry>
        </mxCell>
      </root>
    </mxGraphModel>
  </diagram>
</mxfile>
